name C:\Users\r0593348\3dpredictsim\Results\batch_windlass\Pog_s1_tmt_bCst_d00_k1500_WL30_ig24_act_TTC.mot
datacolumns 128
datarows 4
range 1.22453498 1.26127103
endheader
time	pelvis_tilt	pelvis_list	pelvis_rotation	pelvis_tx	pelvis_ty	pelvis_tz	hip_flexion_l	hip_adduction_l	hip_rotation_l	hip_flexion_r	hip_adduction_r	hip_rotation_r	knee_angle_l	knee_angle_r	ankle_angle_l	ankle_angle_r	subtalar_angle_l	subtalar_angle_r	tmt_angle_l	tmt_angle_r	mtp_angle_l	mtp_angle_r	lumbar_extension	lumbar_bending	lumbar_rotation	arm_flex_l	arm_add_l	arm_rot_l	arm_flex_r	arm_add_r	arm_rot_r	elbow_flex_l	elbow_flex_r	pro_sup_l	pro_sup_r	glut_med1_l/activation	glut_med2_l/activation	glut_med3_l/activation	glut_min1_l/activation	glut_min2_l/activation	glut_min3_l/activation	semimem_l/activation	semiten_l/activation	bifemlh_l/activation	bifemsh_l/activation	sar_l/activation	add_long_l/activation	add_brev_l/activation	add_mag1_l/activation	add_mag2_l/activation	add_mag3_l/activation	tfl_l/activation	pect_l/activation	grac_l/activation	glut_max1_l/activation	glut_max2_l/activation	glut_max3_l/activation	iliacus_l/activation	psoas_l/activation	quad_fem_l/activation	gem_l/activation	peri_l/activation	rect_fem_l/activation	vas_med_l/activation	vas_int_l/activation	vas_lat_l/activation	med_gas_l/activation	lat_gas_l/activation	soleus_l/activation	tib_post_l/activation	flex_dig_l/activation	flex_hal_l/activation	tib_ant_l/activation	per_brev_l/activation	per_long_l/activation	per_tert_l/activation	ext_dig_l/activation	ext_hal_l/activation	ercspn_l/activation	intobl_l/activation	extobl_l/activation	glut_med1_r/activation	glut_med2_r/activation	glut_med3_r/activation	glut_min1_r/activation	glut_min2_r/activation	glut_min3_r/activation	semimem_r/activation	semiten_r/activation	bifemlh_r/activation	bifemsh_r/activation	sar_r/activation	add_long_r/activation	add_brev_r/activation	add_mag1_r/activation	add_mag2_r/activation	add_mag3_r/activation	tfl_r/activation	pect_r/activation	grac_r/activation	glut_max1_r/activation	glut_max2_r/activation	glut_max3_r/activation	iliacus_r/activation	psoas_r/activation	quad_fem_r/activation	gem_r/activation	peri_r/activation	rect_fem_r/activation	vas_med_r/activation	vas_int_r/activation	vas_lat_r/activation	med_gas_r/activation	lat_gas_r/activation	soleus_r/activation	tib_post_r/activation	flex_dig_r/activation	flex_hal_r/activation	tib_ant_r/activation	per_brev_r/activation	per_long_r/activation	per_tert_r/activation	ext_dig_r/activation	ext_hal_r/activation	ercspn_r/activation	intobl_r/activation	extobl_r/activation	
          1.22453498	         -2.93011918	         -1.01390831	          7.78697092	          1.53066873	          0.85948420	         -0.00124315	        -15.19276632	         -2.00997035	          9.15946349	         32.97910871	          0.74552684	          0.63130551	        -16.92066410	        -17.49436955	         -6.68768641	          9.20035116	         17.89608895	          3.26843130	        -11.14672689	         -0.40673778	         34.28000781	          1.14695558	          0.07324440	         -1.22783768	         -3.05366463	          3.14975766	        -13.53046515	         17.70443061	        -13.22728124	        -13.73911400	         11.53769977	         44.86888634	         17.77782250	         86.51662706	         86.51662706	          0.19658920	          0.07224668	          0.05000014	          0.22365337	          0.14844388	          0.08632423	          0.05000609	          0.05000069	          0.05000063	          0.05000025	          0.08714078	          0.13422462	          0.07786162	          0.06379093	          0.05003837	          0.06020352	          0.17504699	          0.05000402	          0.05000078	          0.05000493	          0.05000426	          0.05000496	          0.30994987	          0.43121525	          0.05000026	          0.05000112	          0.05000048	          0.14533577	          0.09010228	          0.09797118	          0.10461018	          0.14032449	          0.19585711	          0.05000001	          0.12268622	          0.12837655	          0.15191278	          0.30124804	          0.48428541	          0.35998999	          0.48286884	          0.41264976	          0.26280469	          0.05000002	          0.05020267	          0.05107339	          0.07317221	          0.06020235	          0.05000066	          0.05000074	          0.05000106	          0.05000544	          0.06020545	          0.06020705	          0.14515365	          0.06020410	          0.05000071	          0.06023394	          0.09756225	          0.19079559	          0.16352163	          0.11127593	          0.05000281	          0.05000305	          0.07225644	          0.06020497	          0.06020548	          0.09830595	          0.06194082	          0.06244389	          0.18257587	          0.05000101	          0.05000886	          0.05000052	          0.07697909	          0.09747314	          0.06991682	          0.06020476	          0.06020484	          0.06935947	          0.06020461	          0.08183231	          0.07982300	          0.49458903	          0.27040811	          0.20217222	          0.07583602	          0.57916321	          0.31835325	          0.05000004	          0.11577378	          0.10863779	
          1.23678033	         -2.92492635	         -0.96504163	          7.91383948	          1.55046639	          0.85831739	         -0.00088469	        -15.20996656	         -2.17621951	          8.88432788	         32.22126045	          1.00892707	          0.82059338	        -18.47516951	        -17.01431384	         -9.34485425	          8.66992884	         18.37999189	          2.92442291	        -11.27557991	         -0.51098233	         34.29171793	          1.43631553	          0.32511538	         -1.03170090	         -3.15199420	          2.60258595	        -13.59756713	         17.87803662	        -14.62688568	        -13.73359617	         11.49212509	         46.13412055	         17.75456282	         86.51662706	         86.51662706	          0.16326806	          0.06000142	          0.05000131	          0.18574499	          0.12328327	          0.07169850	          0.05000429	          0.05000063	          0.05000057	          0.05000207	          0.07237135	          0.17607590	          0.21468320	          0.12747037	          0.05000436	          0.05000072	          0.14537719	          0.10442001	          0.07248961	          0.05000323	          0.05000180	          0.05000096	          0.25741446	          0.35812584	          0.08335091	          0.05006351	          0.07249148	          0.12070185	          0.07483035	          0.08136551	          0.08687919	          0.11653995	          0.16265998	          0.05000002	          0.10189132	          0.10661723	          0.12616411	          0.47456902	          0.43361129	          0.33045638	          0.71529187	          0.52672924	          0.21826626	          0.06084476	          0.06527258	          0.05000047	          0.09998717	          0.05000250	          0.24942486	          0.06020509	          0.06020414	          0.05000259	          0.05000090	          0.05000224	          0.13056397	          0.05000021	          0.05000130	          0.08728829	          0.16307101	          0.27914141	          0.22726232	          0.14943390	          0.05000037	          0.08086155	          0.06000964	          0.05000064	          0.05000094	          0.15927111	          0.05667802	          0.05186027	          0.15163007	          0.12941460	          0.19443718	          0.07249174	          0.23655831	          0.23178178	          0.19785904	          0.05000027	          0.05000036	          0.05760328	          0.05000017	          0.06796232	          0.06629354	          0.69225039	          0.31366488	          0.16790571	          0.49119868	          0.69547631	          0.53364796	          0.05000009	          0.09615052	          0.09022405	
          1.24902568	         -2.91287352	         -0.92386859	          8.00493417	          1.57033919	          0.85653652	         -0.00054482	        -15.01155546	         -2.29734578	          8.62603708	         31.35178151	          1.28687665	          1.07821268	        -20.54655956	        -17.20717929	        -11.46850102	          7.90585162	         18.76123815	          2.56805034	        -10.74139296	         -0.72292607	         32.31969263	          1.77563145	          0.57285665	         -0.81279325	         -3.23103728	          2.01306691	        -13.67872601	         17.98087918	        -15.95745667	        -13.74370403	         11.56596415	         47.39041399	         17.61302075	         86.51662706	         86.51662706	          0.13559474	          0.06020490	          0.06020488	          0.15426194	          0.10238730	          0.06020498	          0.05000258	          0.05000049	          0.05000350	          0.05000011	          0.06010493	          0.15770612	          0.28291509	          0.22243818	          0.11965939	          0.10511368	          0.12073631	          0.08672190	          0.06020397	          0.06020740	          0.06020759	          0.07577236	          0.21378361	          0.29847665	          0.07249137	          0.06020745	          0.06020460	          0.10024329	          0.07249151	          0.07249150	          0.07249150	          0.09678682	          0.13508967	          0.05000001	          0.08462109	          0.08854604	          0.10477977	          0.45565286	          0.43210178	          0.31665311	          0.59878986	          0.70868284	          0.45204557	          0.09243135	          0.06020446	          0.05556564	          0.22097561	          0.05000029	          0.20714876	          0.05000073	          0.05000041	          0.05000043	          0.05000014	          0.05000013	          0.10843408	          0.05000008	          0.05000089	          0.07249343	          0.13543119	          0.24056636	          0.22675675	          0.15264386	          0.05000106	          0.06716899	          0.05000073	          0.17361538	          0.15447870	          0.13227681	          0.05000386	          0.05000125	          0.26807944	          0.10747949	          0.16148109	          0.06020476	          0.29719006	          0.29005804	          0.24950342	          0.05740871	          0.06016832	          0.06020444	          0.05000012	          0.06020248	          0.06020392	          0.64195181	          0.36647178	          0.18105040	          0.63471743	          0.68351559	          0.44319657	          0.05000004	          0.07985333	          0.07493138	
          1.26127103	         -2.89536327	         -0.90094407	          8.05647452	          1.59011128	          0.85434690	         -0.00020524	        -14.58963300	         -2.38690617	          8.39951546	         30.34314988	          1.56913331	          1.37222560	        -23.11485958	        -17.74992635	        -13.10125431	          7.55801913	         19.03644400	          2.17634675	         -9.59535149	         -1.60965431	         28.48276984	          1.90065138	          0.80831010	         -0.56682780	         -3.29302521	          1.41563386	        -13.75801017	         18.01588239	        -17.16481930	        -13.76419698	         11.78920137	         48.57626291	         17.31086465	         86.51662706	         86.51662706	          0.24618079	          0.05000043	          0.05000037	          0.22823123	          0.08503313	          0.05000058	          0.06367725	          0.05000019	          0.05000027	          0.05000011	          0.05000237	          0.19063202	          0.30902216	          0.18473799	          0.09937883	          0.08729763	          0.10027198	          0.07837367	          0.05000046	          0.05000308	          0.05000293	          0.06292934	          0.17754821	          0.28960606	          0.06020435	          0.05000267	          0.05000021	          0.08325239	          0.06020447	          0.06020447	          0.06020446	          0.08038179	          0.11219248	          0.05437310	          0.07027812	          0.07353788	          0.08702004	          0.62156566	          0.40245936	          0.29296977	          0.54834774	          0.58856347	          0.37542537	          0.11130517	          0.05000001	          0.05000007	          0.36149931	          0.37040886	          0.49416044	          0.16971462	          0.05020209	          0.35807937	          0.07257625	          0.10510071	          0.09351793	          0.07249146	          0.05000152	          0.06020610	          0.11247610	          0.19979158	          0.20913257	          0.17483813	          0.05000028	          0.05578525	          0.08732052	          0.29376009	          0.22508796	          0.18357444	          0.05000020	          0.05000018	          0.22264112	          0.08926247	          0.31628433	          0.05000027	          0.24681816	          0.27681620	          0.22429202	          0.05000001	          0.05000003	          0.05000000	          0.05000001	          0.05000022	          0.05000018	          0.80287556	          0.30435609	          0.15036298	          0.79889262	          0.80353531	          0.69102507	          0.06436760	          0.06631859	          0.06223077	
